<?xml version="1.0" standalone="no"?>
<!DOCTYPE svg PUBLIC "-//W3C//DTD SVG 20010904//EN"
 "http://www.w3.org/TR/2001/REC-SVG-20010904/DTD/svg10.dtd">
<svg version="1.0" xmlns="http://www.w3.org/2000/svg"
 width="420.000000pt" height="420.000000pt" viewBox="0 0 420.000000 420.000000"
 preserveAspectRatio="xMidYMid meet">
<metadata>
Created by potrace 1.11, written by Peter Selinger 2001-2013
</metadata>
<g transform="translate(0.000000,420.000000) scale(0.100000,-0.100000)"
fill="#000000" stroke="none">
<path d="M404 4069 c-118 -37 -219 -130 -265 -246 l-24 -58 0 -1670 0 -1670
24 -58 c47 -117 147 -210 268 -247 64 -20 90 -20 1698 -20 1608 0 1634 0 1698
20 121 37 221 130 268 247 l24 58 0 1670 0 1670 -24 58 c-47 117 -147 210
-268 247 -64 20 -89 20 -1702 19 -1593 0 -1638 -1 -1697 -20z m2656 -369 l0
-160 160 0 160 0 0 -1120 0 -1120 -160 0 -160 0 0 -160 0 -160 -160 0 -160 0
0 -320 0 -320 -320 0 -320 0 0 160 0 160 -160 0 -160 0 0 160 0 160 -320 0
-320 0 0 160 0 160 -160 0 -160 0 0 1120 0 1120 160 0 160 0 0 160 0 160 960
0 960 0 0 -160z"/>
<path d="M1140 2900 l0 -640 960 0 960 0 0 640 0 640 -960 0 -960 0 0 -640z
m640 -160 l0 -160 -160 0 -160 0 0 160 0 160 160 0 160 0 0 -160z m960 0 l0
-160 -160 0 -160 0 0 160 0 160 160 0 160 0 0 -160z"/>
<path d="M1460 1780 l0 -160 160 0 160 0 0 160 0 160 -160 0 -160 0 0 -160z"/>
<path d="M2420 1780 l0 -160 160 0 160 0 0 160 0 160 -160 0 -160 0 0 -160z"/>
</g>
</svg>
